HIERARCHY
ROOT Hips
{
 OFFSET 0.000000 0.000000 0.000000
 CHANNELS 6 Xposition Yposition Zposition Yrotation Xrotation Zrotation
 JOINT Chest
 {
  OFFSET 0.000000 9.585900 0.002600
  CHANNELS 3 Yrotation Xrotation Zrotation
  JOINT Chest2
  {
   OFFSET 0.000000 9.601200 -0.005300
   CHANNELS 3 Yrotation Xrotation Zrotation
   JOINT Chest3
   {
    OFFSET 0.000000 9.561800 0.000000
    CHANNELS 3 Yrotation Xrotation Zrotation
    JOINT Chest4
    {
     OFFSET 0.000000 9.552100 0.000000
     CHANNELS 3 Yrotation Xrotation Zrotation
     JOINT Neck
     {
      OFFSET 0.000000 14.453000 0.000000
      CHANNELS 3 Yrotation Xrotation Zrotation
      JOINT Head
      {
       OFFSET 0.000000 8.936500 -0.011300
       CHANNELS 3 Yrotation Xrotation Zrotation
       End Site
       {
        OFFSET 0.000000 17.073600 -0.006000
       }
      }
     }
     JOINT RightCollar
     {
      OFFSET -2.921100 9.558500 0.000000
      CHANNELS 3 Yrotation Xrotation Zrotation
      JOINT RightShoulder
      {
       OFFSET -13.519700 0.000000 0.000000
       CHANNELS 3 Yrotation Xrotation Zrotation
       JOINT RightElbow
       {
        OFFSET 0.000000 -29.696600 0.000000
        CHANNELS 3 Yrotation Xrotation Zrotation
        JOINT RightWrist
        {
         OFFSET 0.000000 -24.004700 0.000000
         CHANNELS 3 Yrotation Xrotation Zrotation
         End Site
         {
          OFFSET 0.000000 -17.728500 0.000000
         }
        }
       }
      }
     }
     JOINT LeftCollar
     {
      OFFSET 2.921100 9.558500 0.000000
      CHANNELS 3 Yrotation Xrotation Zrotation
      JOINT LeftShoulder
      {
       OFFSET 13.519700 0.000000 0.000000
       CHANNELS 3 Yrotation Xrotation Zrotation
       JOINT LeftElbow
       {
        OFFSET 0.000000 -29.696600 0.000000
        CHANNELS 3 Yrotation Xrotation Zrotation
        JOINT LeftWrist
        {
         OFFSET 0.000000 -24.004700 0.000000
         CHANNELS 3 Yrotation Xrotation Zrotation
         End Site
         {
          OFFSET 0.000000 -17.728500 0.000000
         }
        }
       }
      }
     }
    }
   }
  }
 }
 JOINT RightHip
 {
  OFFSET -7.771700 -0.012900 -0.001300
  CHANNELS 3 Yrotation Xrotation Zrotation
  JOINT RightKnee
  {
   OFFSET 0.000000 -40.869800 0.001200
   CHANNELS 3 Yrotation Xrotation Zrotation
   JOINT RightAnkle
   {
    OFFSET 0.000000 -39.717900 0.002100
    CHANNELS 3 Yrotation Xrotation Zrotation
    JOINT RightToe
    {
     OFFSET 0.000000 -4.965400 11.033500
     CHANNELS 3 Yrotation Xrotation Zrotation
     End Site
     {
      OFFSET 0.000000 -1.423100 5.872300
     }
    }
   }
  }
 }
 JOINT LeftHip
 {
  OFFSET 7.771700 -0.012900 -0.001300
  CHANNELS 3 Yrotation Xrotation Zrotation
  JOINT LeftKnee
  {
   OFFSET 0.000000 -40.869800 0.001200
   CHANNELS 3 Yrotation Xrotation Zrotation
   JOINT LeftAnkle
   {
    OFFSET 0.000000 -39.717900 0.002100
    CHANNELS 3 Yrotation Xrotation Zrotation
    JOINT LeftToe
    {
     OFFSET 0.000000 -4.965400 11.033500
     CHANNELS 3 Yrotation Xrotation Zrotation
     End Site
     {
      OFFSET 0.000000 -1.423100 5.872300
     }
    }
   }
  }
 }
}
MOTION
Frames: 9
Frame Time: 0.008333
-40.400429 62.048856 13.138199 177.451475 -51.463818 -0.707397 3.668766 27.518168 1.047205 0.538862 4.803509 0.166667 0.860132 7.590600 0.284957 2.728953 22.240102 1.206856 1.067348 15.102097 1.540450 1.573147 -7.769679 2.483696 7.397752 4.693289 5.103743 1.494255 -12.791289 -14.815946 -127.082829 -58.314305 160.200697 17.524391 0.567330 -6.847173 -9.766052 1.603385 -0.423245 -4.490887 -8.331243 17.024009 -173.571704 -66.818996 161.417119 -3.230689 -15.801313 6.070390 3.153456 -15.441079 -6.521434 -1.190420 61.367267 -5.125171 1.386963 -7.542560 10.365416 0.227363 -0.526846 0.115036 -3.781276 -12.653245 1.858084 25.189364 76.575341 25.605623 0.489917 -11.803601 -3.695109 0.249986 0.666429 0.113952
-40.399869 62.047760 13.137245 177.451225 -51.452228 -0.710721 3.671924 27.503870 1.055101 0.538589 4.800920 0.167692 0.863285 7.575819 0.292887 2.720247 22.254225 1.200387 1.119516 15.098287 1.549999 1.666070 -7.738667 2.459811 7.383615 4.608438 5.123973 1.503870 -12.720040 -14.845686 -127.145725 -58.307819 160.251613 17.563191 0.609516 -6.843679 -9.751759 1.574865 -0.425606 -4.508222 -8.359811 17.026974 -173.512546 -66.790729 161.385479 -3.221792 -15.808030 6.080510 3.154229 -15.454058 -6.517016 -1.191860 61.370272 -5.125585 1.385354 -7.546886 10.362790 0.230254 -0.523051 0.111964 -3.782589 -12.664409 1.861822 25.178766 76.576641 25.599492 0.489313 -11.806056 -3.699058 0.252460 0.669864 0.114927
-40.400821 62.047142 13.136254 177.458224 -51.442707 -0.712722 3.669126 27.491004 1.056509 0.538309 4.798346 0.168801 0.864295 7.565419 0.297362 2.724754 22.241032 1.214311 1.215249 15.105561 1.558290 1.712767 -7.693545 2.442185 7.367846 4.584003 5.125303 1.503108 -12.697115 -14.871085 -127.247738 -58.294453 160.315564 17.629961 0.648049 -6.804809 -9.748367 1.564890 -0.445522 -4.523283 -8.393256 17.025905 -173.416601 -66.779528 161.318494 -3.224395 -15.832082 6.093937 3.156183 -15.463017 -6.517827 -1.189197 61.374740 -5.125173 1.375358 -7.554110 10.362361 0.231586 -0.518962 0.114937 -3.790465 -12.674419 1.852165 25.198511 76.575256 25.621400 0.497899 -11.805972 -3.697679 0.246457 0.671567 0.108479
-40.401787 62.046543 13.135687 177.457581 -51.431689 -0.711627 3.671842 27.471689 1.064473 0.538838 4.792375 0.170664 0.860529 7.573922 0.291114 2.738919 22.211939 1.232958 1.279571 15.122519 1.563783 1.800574 -7.651146 2.424501 7.344333 4.549527 5.135516 1.501685 -12.676808 -14.905008 -127.429522 -58.276306 160.415713 17.739578 0.673203 -6.707142 -9.701746 1.447762 -0.473731 -4.584146 -8.300216 17.023252 -173.280826 -66.751404 161.231969 -3.224944 -15.856466 6.104833 3.166794 -15.472509 -6.520121 -1.179808 61.375617 -5.111556 1.365205 -7.561711 10.364692 0.229621 -0.512423 0.114396 -3.791755 -12.686350 1.848509 25.199407 76.576168 25.622910 0.508263 -11.804441 -3.695624 0.239957 0.671088 0.104727
-40.403658 62.044863 13.136569 177.455184 -51.408690 -0.707494 3.672542 27.445384 1.070935 0.538444 4.785105 0.171631 0.859967 7.563130 0.292722 2.739898 22.199050 1.238647 1.335831 15.143839 1.571483 1.919971 -7.609725 2.405950 7.324620 4.526859 5.144168 1.491654 -12.687307 -14.944432 -127.738614 -58.247745 160.576304 17.910278 0.674793 -6.535247 -9.658934 1.365940 -0.501370 -4.634232 -8.205082 17.022332 -173.125890 -66.688177 161.152933 -3.225212 -15.879993 6.120021 3.171059 -15.497017 -6.524456 -1.180881 61.377694 -5.112160 1.363462 -7.568415 10.364626 0.228524 -0.506849 0.113176 -3.790892 -12.711147 1.843513 25.197765 76.577831 25.622100 0.518910 -11.805978 -3.692760 0.234693 0.673635 0.100883
-40.405858 62.044937 13.136731 177.453437 -51.394544 -0.705289 3.661836 27.428458 1.080070 0.541355 4.776585 0.164319 0.851506 7.536869 0.305868 2.739228 22.200992 1.231946 1.406528 15.169175 1.583792 2.054829 -7.566172 2.386629 7.293657 4.546821 5.131475 1.478612 -12.756729 -14.985110 -128.234254 -58.200258 160.827469 18.178381 0.635923 -6.301051 -9.606764 1.303886 -0.530382 -4.661305 -8.257536 16.994620 -172.935758 -66.744146 160.985346 -3.224862 -15.904116 6.146991 3.178585 -15.509407 -6.525764 -1.195923 61.376919 -5.123982 1.361076 -7.576676 10.366683 0.225405 -0.500364 0.111531 -3.789547 -12.726438 1.838468 25.209288 76.577442 25.635628 0.525150 -11.802467 -3.690831 0.228077 0.670470 0.098272
-40.409908 62.042615 13.139543 177.463815 -51.355953 -0.705809 3.647875 27.390807 1.070765 0.535199 4.769014 0.174091 0.855065 7.539438 0.296392 2.716148 22.137964 1.282885 1.488272 15.228991 1.559645 2.205034 -7.521819 2.364636 7.253122 4.659716 5.050675 1.455234 -12.900465 -15.024127 -129.017491 -58.132763 161.236241 18.584607 0.540381 -6.052804 -9.560994 1.312399 -0.606455 -4.673833 -8.276581 16.975604 -172.740826 -66.735686 160.860095 -3.218724 -15.928516 6.186603 3.176097 -15.547698 -6.536922 -1.193935 61.377022 -5.124679 1.357225 -7.589007 10.372708 0.228388 -0.490308 0.108433 -3.793148 -12.768524 1.826373 25.216983 76.576448 25.646599 0.533211 -11.807060 -3.688798 0.222118 0.678264 0.096466
-40.414771 62.043050 13.141016 177.473502 -51.331494 -0.704108 3.630339 27.372325 1.073833 0.531558 4.759825 0.175628 0.849612 7.526126 0.298973 2.707836 22.140926 1.274798 1.573226 15.237042 1.585130 2.368290 -7.477582 2.339446 7.195276 4.759286 4.984281 1.397132 -13.108322 -15.068218 -130.206317 -58.040946 161.886188 19.152608 0.381049 -5.859537 -9.472848 1.199760 -0.625821 -4.704048 -8.264479 16.916988 -172.506163 -66.770439 160.659768 -3.203097 -15.957343 6.231205 3.172673 -15.569441 -6.550307 -1.195573 61.374418 -5.126064 1.353471 -7.596608 10.374002 0.230624 -0.484626 0.107905 -3.793902 -12.793327 1.810062 25.207621 76.569477 25.642903 0.541528 -11.801514 -3.687471 0.215955 0.679362 0.096582
-40.419853 62.046009 13.141407 177.479796 -51.318766 -0.701669 3.601338 27.373746 1.090911 0.527936 4.745008 0.173259 0.840042 7.506687 0.302534 2.704185 22.149732 1.248392 1.666952 15.241823 1.607992 2.542775 -7.431027 2.312630 7.121610 4.865510 4.905245 1.307784 -13.349454 -15.131474 -131.935392 -57.903412 162.884237 19.873617 0.167682 -5.785759 -9.374510 1.083832 -0.638995 -4.722852 -8.253438 16.837454 -172.234225 -66.815864 160.418718 -3.179563 -15.994175 6.278080 3.170579 -15.577148 -6.561766 -1.188743 61.370129 -5.118720 1.346058 -7.602168 10.374691 0.236240 -0.485473 0.107573 -3.792518 -12.804212 1.795439 25.217224 76.558981 25.656524 0.541274 -11.790391 -3.681126 0.214547 0.674305 0.091878
